{"title":"Taken 2 2012 DVDRIP XVID AC3 - RiSES","uid":7938146,"size":737446524,"categoryP":"video","categoryS":"movies","magnet":"?xt=urn:btih:54dc8455b95cafe605d8d3f1e9cc4cb7dac2eaa6&amp;dn=Taken+2+2012+DVDRIP+XVID+AC3+-+RiSES&amp;tr=udp%3A%2F%2Ftracker.openbittorrent.com%3A80&amp;tr=udp%3A%2F%2Fopen.demonii.com%3A1337&amp;tr=udp%3A%2F%2Ftracker.coppersurfer.tk%3A6969&amp;tr=udp%3A%2F%2Fexodus.desync.com%3A6969","seeders":1,"leechers":3,"uploader":"MANTESH","files":2,"time":1355918253,"description":"\n &lt;a href=&quot;\nhttp://rapidimg.org/server/files/50d1a5dece8df.jpg&quot; rel=&quot;nofollow&quot; target=&quot;_NEW&quot;&gt;\nhttp://rapidimg.org/server/files/50d1a5dece8df.jpg&lt;/a&gt;\n\n\nSource Used :-\n\n Video - HS- Thanks!\n Audio - HS - Thanks!\n\n Video\n ID : 0\n Format : MPEG-4 Visual\n Format profile : Advanced Simple@L5\n Format settings, BVOP : 2\n Format settings, QPel : Yes\n Format settings, GMC : No warppoints\n Format settings, Matrix : Default (H.263)\n Codec ID : XVID\n Codec ID/Hint : XviD\n Duration : 1h 32mn\n Bit rate : 849 Kbps\n Width : 672 pixels\n Height : 288 pixels\n Display aspect ratio : 2.35:1\n Frame rate : 23.976 fps\n Color space : YUV\n Chroma subsampling : 4:2:0\n Bit depth : 8 bits\n Scan type : Progressive\n Compression mode : Lossy\n Bits/(Pixel*Frame) : 0.183\n Stream size : 563 MiB (81%)\n Writing library : XviD 1.2.1 (UTC 2008-12-04)\n\n Audio\n ID : 1\n Format : AC-3\n Format/Info : Audio Coding 3\n Mode extension : CM (complete main)\n Format settings, Endianness : Big\n Codec ID : 2000\n Duration : 1h 32mn\n Bit rate mode : Constant\n Bit rate : 192 Kbps\n Channel(s) : 6 channels\n Channel positions : Front: L C R, Side: L R, LFE\n Sampling rate : 44.1 KHz\n Bit depth : 16 bits\n Compression mode : Lossy\n Stream size : 126 MiB (18%)\n Alignment : Aligned on interleaves\n Interleave, duration : 70 ms (1.68 video frames)\n Interleave, preload duration : 208 ms\n \n &lt;a href=&quot;\nhttp://www.imdb.com/title/tt1397280/&quot; rel=&quot;nofollow&quot; target=&quot;_NEW&quot;&gt;\nhttp://www.imdb.com/title/tt1397280/&lt;/a&gt;\n\nIn Istanbul, retired CIA operative Bryan Mills and his wife are taken hostage by the father of a kidnapper Mills killed while rescuing his daughter.\n\n &lt;a href=&quot;\nhttp://img571.imageshack.us/img571/5742/vlcsnap2012121910h11m54.png&quot; rel=&quot;nofollow&quot; target=&quot;_NEW&quot;&gt;\nhttp://img571.imageshack.us/img571/5742/vlcsnap2012121910h11m54.png&lt;/a&gt; &lt;a href=&quot;\nhttp://img547.imageshack.us/img547/6941/vlcsnap2012121910h16m20.png&quot; rel=&quot;nofollow&quot; target=&quot;_NEW&quot;&gt;\nhttp://img547.imageshack.us/img547/6941/vlcsnap2012121910h16m20.png&lt;/a&gt; &lt;a href=&quot;\nhttp://img267.imageshack.us/img267/5958/vlcsnap2012121910h18m47.png&quot; rel=&quot;nofollow&quot; target=&quot;_NEW&quot;&gt;\nhttp://img267.imageshack.us/img267/5958/vlcsnap2012121910h18m47.png&lt;/a&gt; &lt;a href=&quot;\nhttp://img33.imageshack.us/img33/751/vlcsnap2012121910h25m39.png&quot; rel=&quot;nofollow&quot; target=&quot;_NEW&quot;&gt;\nhttp://img33.imageshack.us/img33/751/vlcsnap2012121910h25m39.png&lt;/a&gt;\n\n\n\n","torrent":{"xt":"urn:btih:54dc8455b95cafe605d8d3f1e9cc4cb7dac2eaa6","amp;dn":"Taken+2+2012+DVDRIP+XVID+AC3+-+RiSES","amp;tr":["udp%3A%2F%2Ftracker.openbittorrent.com%3A80","udp%3A%2F%2Fopen.demonii.com%3A1337","udp%3A%2F%2Ftracker.coppersurfer.tk%3A6969","udp%3A%2F%2Fexodus.desync.com%3A6969"],"infoHash":"54dc8455b95cafe605d8d3f1e9cc4cb7dac2eaa6","infoHashBuffer":{"type":"Buffer","data":[84,220,132,85,185,92,175,230,5,216,211,241,233,204,76,183,218,194,234,166]},"announce":[],"urlList":[]}}